<svg viewBox="0 0 72 72" xmlns="http://www.w3.org/2000/svg"><g style="fill:none;stroke:#000;stroke-linecap:round;stroke-linejoin:round;stroke-miterlimit:10;stroke-width:2"><path d="m33.79 23.7098c4.13-1.45 7.09-5.39 7.09-10.02 0-5.87-4.75-10.63-10.62-10.63s-10.62 4.76-10.62 10.63c0 4.65 2.99 8.6 7.15 10.04"/><path d="m54.8163 50.7743c0 9.0883-7.3675 16.4558-16.4558 16.4558s-16.4558-7.3675-16.4558-16.4558"/><path d="m54.8163 49.9008v-12"/><path d="m47.824 37.6074c.081-1.9313 1.7123-3.4313 3.6436-3.3502s3.4313 1.7123 3.3502 3.6436"/><path d="m40.827 37.3745c.081-1.9313 1.7123-3.4313 3.6436-3.3502s3.4313 1.7123 3.3502 3.6436"/><path d="m40.8311 37.2406c.155-1.9268 1.8426-3.3631 3.7694-3.2081s3.3631 1.8426 3.2081 3.7694"/><path d="m33.7895 36.8962c.1237-1.929 1.7878-3.3925 3.7168-3.2688s3.3925 1.7878 3.2688 3.7168"/><path d="m16.8357 39.1198c-1.3429-1.3904-1.3044-3.6061.086-4.949s3.6061-1.3044 4.949.086"/><path d="m26.7895 14.5239c0-1.933 1.567-3.5 3.5-3.5s3.5 1.567 3.5 3.5"/><path d="m33.7895 36.8591v-22.3352"/><path d="m26.7895 14.5239v27.7906"/><path d="m23.8286 36.4705-1.958-2.2137"/><path d="m18.6034 41.4395c1.9526 2.1439 3.3734 5.1677 3.3013 9.5218"/><path d="m16.8357 39.1198 1.8214 2.3802"/><path d="m54.8315 50.7591c0 9.0883-7.3675 16.4558-16.4558 16.4558s-16.4557-7.3675-16.4557-16.4558"/></g></svg>